# xmcd
#
# Track frame offsets: 
#        150
#        10888
#        20380
#        31785
#        43928
#        54258
#        67518
#        77238
#        88473
#        98980
#        111890
#        123725
#        137770
#        148743
#        158178
#        170558
#        180540
#
# Disc length: 2544 seconds
#
# Revision: 1
# Processed by: cddbd v1.5.1PL0 Copyright (c) Steve Scherf et al.
# Submitted via: ExactAudioCopy v0.95a5
#
DISCID=e409ee11
DTITLE=Hank Locklin - Please Help Me I'm Falling
DYEAR=1992
DGENRE=Country
TTITLE0=Please Help Me I'm Falling
TTITLE1=Geisha Girl
TTITLE2=Send Me The Pillow That You Dream On
TTITLE3=It's A Little More Like Heaven
TTITLE4=Let Me Be The One
TTITLE5=Happy Birthday To Me
TTITLE6=Happy Journey
TTITLE7=Down On My Knees
TTITLE8=Night Life Queen
TTITLE9=Daytime Love Affair
TTITLE10=There Never Was A Time
TTITLE11=Baby I Need You
TTITLE12=I Was Coming Home To You
TTITLE13=Flying South
TTITLE14=From Here To There To You
TTITLE15=We're Gonna Go Fishin'
TTITLE16=These Arms You Push Away
EXTD=
EXTT0=
EXTT1=
EXTT2=
EXTT3=
EXTT4=
EXTT5=
EXTT6=
EXTT7=
EXTT8=
EXTT9=
EXTT10=
EXTT11=
EXTT12=
EXTT13=
EXTT14=
EXTT15=
EXTT16=
PLAYORDER=
